<svg width="16" height="16" viewBox="0 0 16 16" fill="none" xmlns="http://www.w3.org/2000/svg">
<path d="M10.667 5.33337H6.66699C6.31337 5.33337 5.97423 5.47385 5.72418 5.7239C5.47413 5.97395 5.33366 6.31309 5.33366 6.66671C5.33366 7.02033 5.47413 7.35947 5.72418 7.60952C5.97423 7.85956 6.31337 8.00004 6.66699 8.00004H9.33366C9.68728 8.00004 10.0264 8.14052 10.2765 8.39056C10.5265 8.64061 10.667 8.97975 10.667 9.33337C10.667 9.687 10.5265 10.0261 10.2765 10.2762C10.0264 10.5262 9.68728 10.6667 9.33366 10.6667H5.33366M8.00033 11.3334V4.66671M2.66699 1.33337V14.6667L4.00033 14L5.33366 14.6667L6.66699 14L8.00033 14.6667L9.33366 14L10.667 14.6667L12.0003 14L13.3337 14.6667V1.33337L12.0003 2.00004L10.667 1.33337L9.33366 2.00004L8.00033 1.33337L6.66699 2.00004L5.33366 1.33337L4.00033 2.00004L2.66699 1.33337Z" stroke="#353C3F" stroke-width="1.5" stroke-linecap="round" stroke-linejoin="round"/>
</svg>
